<svg xmlns="http://www.w3.org/2000/svg" width="224.013" height="99.003" viewBox="0 0 224.013 99.003">
  <g id="Group_26" data-name="Group 26" transform="translate(-180.106 -498.687)">
    <path id="Path_60" data-name="Path 60" d="M180.106,527.879h9.249l12.628,32.284,12.1-32.284h8.539l-16.542,42.156h-8.8Z" transform="translate(0 6.867)" fill="#eff1f3"/>
    <path id="Path_61" data-name="Path 61" d="M214.554,549.162a21.472,21.472,0,0,1,1.734-8.628,22.471,22.471,0,0,1,4.758-7.025,22.643,22.643,0,0,1,31.84,0,22.492,22.492,0,0,1,4.758,7.025,21.472,21.472,0,0,1,1.734,8.628,21.926,21.926,0,0,1-6.492,15.7,22.583,22.583,0,0,1-7.115,4.712,23.221,23.221,0,0,1-17.611,0,22.549,22.549,0,0,1-7.114-4.712,21.926,21.926,0,0,1-6.492-15.7Zm8.538,0a17.288,17.288,0,0,0,.978,5.914,13.288,13.288,0,0,0,2.756,4.623,12.723,12.723,0,0,0,4.359,3.024,15.57,15.57,0,0,0,11.562,0A12.724,12.724,0,0,0,247.1,559.7a13.33,13.33,0,0,0,2.758-4.623,18.367,18.367,0,0,0,0-11.829,13.374,13.374,0,0,0-2.758-4.626,12.793,12.793,0,0,0-4.357-3.024,15.6,15.6,0,0,0-11.562,0,12.791,12.791,0,0,0-4.359,3.024,13.332,13.332,0,0,0-2.756,4.626A17.277,17.277,0,0,0,223.092,549.162Z" transform="translate(8.104 6.664)" fill="#eff1f3"/>
    <path id="Path_62" data-name="Path 62" d="M305.532,539.271a16.757,16.757,0,0,0-4.669-3.512,13.074,13.074,0,0,0-5.825-1.2,12.851,12.851,0,0,0-5.735,1.2,11.666,11.666,0,0,0-4.092,3.291,14.776,14.776,0,0,0-2.489,4.8,18.856,18.856,0,0,0-.846,5.649,15.78,15.78,0,0,0,.978,5.559,13.986,13.986,0,0,0,2.758,4.58,12.67,12.67,0,0,0,4.269,3.067,13.568,13.568,0,0,0,5.6,1.113,12.819,12.819,0,0,0,5.78-1.2,14.836,14.836,0,0,0,4.448-3.514L311.4,564.8a17.919,17.919,0,0,1-7.248,4.98,25.335,25.335,0,0,1-8.76,1.511,24.1,24.1,0,0,1-8.938-1.6,20.675,20.675,0,0,1-6.98-4.491,19.833,19.833,0,0,1-4.536-6.937,24.1,24.1,0,0,1-1.6-8.939,24.449,24.449,0,0,1,1.6-8.981,20.039,20.039,0,0,1,11.428-11.608,23.778,23.778,0,0,1,9.026-1.645,24.205,24.205,0,0,1,8.851,1.645,19.5,19.5,0,0,1,7.337,5.026Z" transform="translate(21.932 6.681)" fill="#eff1f3"/>
    <path id="Path_63" data-name="Path 63" d="M313.219,552.1a10.553,10.553,0,0,0,1.2,5.024,12.472,12.472,0,0,0,3.156,3.87,14.606,14.606,0,0,0,4.536,2.489,16.223,16.223,0,0,0,5.336.889,11.947,11.947,0,0,0,6.492-1.733,20.93,20.93,0,0,0,5.069-4.58l6.048,4.624q-6.67,8.627-18.677,8.627a23.227,23.227,0,0,1-9.026-1.69,19.589,19.589,0,0,1-6.848-4.669,20.669,20.669,0,0,1-4.315-7.026,24.789,24.789,0,0,1-1.512-8.759,23.014,23.014,0,0,1,1.645-8.76,21.725,21.725,0,0,1,4.536-7.027,20.737,20.737,0,0,1,6.893-4.669,22.2,22.2,0,0,1,8.716-1.69,20.84,20.84,0,0,1,9.472,1.957,18.738,18.738,0,0,1,6.359,5.115,20.215,20.215,0,0,1,3.6,7.114,29.688,29.688,0,0,1,1.112,8.049V552.1Zm25.258-6.4a16.974,16.974,0,0,0-.844-4.892,10.837,10.837,0,0,0-2.268-3.869,10.489,10.489,0,0,0-3.781-2.579,13.829,13.829,0,0,0-5.292-.933,12.85,12.85,0,0,0-5.381,1.11,13.122,13.122,0,0,0-4.136,2.892,13.351,13.351,0,0,0-2.624,3.958,10.89,10.89,0,0,0-.934,4.312Z" transform="translate(29.305 6.664)" fill="#eff1f3"/>
    <path id="Path_64" data-name="Path 64" d="M341.729,528.082h8v6.492h.178a11.406,11.406,0,0,1,2.134-3.067,14.345,14.345,0,0,1,2.979-2.358,15.793,15.793,0,0,1,3.6-1.555,13.745,13.745,0,0,1,3.913-.579,11.173,11.173,0,0,1,3.558.535l-.356,8.626q-.98-.267-1.957-.443a10.938,10.938,0,0,0-1.957-.179q-5.87,0-8.983,3.291t-3.113,10.228v21.167h-8Z" transform="translate(38.021 6.664)" fill="#eff1f3"/>
    <g id="Group_25" data-name="Group 25" transform="translate(265.636 498.687)">
      <path id="Path_65" data-name="Path 65" d="M277.785,510.792l-27.509.065c-.726-5.078,5.88-11.545,12.423-12.115A13.9,13.9,0,0,1,277.785,510.792Z" transform="translate(-249.142 -498.687)" fill="#eff1f3"/>
      <path id="Path_66" data-name="Path 66" d="M277.344,513.231a12.527,12.527,0,0,1-2.958,5.34,1.8,1.8,0,0,1-1.187.506q-9.251.033-18.505-.027a1.815,1.815,0,0,1-1.2-.476,12.814,12.814,0,0,1-2.977-5.281Z" transform="translate(-249.073 -495.266)" fill="#eff1f3"/>
      <path id="Path_67" data-name="Path 67" d="M278.842,509.856a7.294,7.294,0,0,1-.082,2.127c-.114.331-.825.646-1.266.647q-13.352.039-26.7-.009c-1.2,0-1.434-.255-1.445-1.435-.011-1.3.226-1.6,1.392-1.6q13.352,0,26.7.026A9.215,9.215,0,0,1,278.842,509.856Z" transform="translate(-249.348 -496.124)" fill="#eff1f3"/>
      <path id="Path_68" data-name="Path 68" d="M272.4,522.312a4.446,4.446,0,0,1-.93.19c-5.356.014-10.712.025-16.068-.017a1.781,1.781,0,0,1-1.157-.672,15.624,15.624,0,0,1-1.228-1.986c-.6-1.033-.455-1.3.734-1.3q6.652-.011,13.3,0c2.092,0,4.185,0,6.279.02.951.011,1.091.251.632,1.092C273.491,520.511,272.964,521.353,272.4,522.312Z" transform="translate(-248.565 -494.021)" fill="#eff1f3"/>
    </g>
    <path id="Subtraction_1" data-name="Subtraction 1" d="M22.01,99h0c-.175,0-.355-.006-.535-.018a8.984,8.984,0,0,1-4.707-1.557,8.166,8.166,0,0,1-2.9-3.981,27.586,27.586,0,0,1-1.019-4.1c-.128-.656-.261-1.332-.415-2.009-2.426-.545-3.05-1.3-3.178-3.861C8.647,71.3,8.029,58.929,7.432,46.966L7.4,46.342q-.374-7.483-.748-14.966c-.012-.223-.03-.446-.045-.643-.007-.082-.013-.16-.018-.231l16.547.021-.061,1.365V31.9c-.077,1.742-.157,3.543-.243,5.352q-.411,8.668-.823,17.335c-.446,9.376-.907,19.071-1.36,28.708a4.407,4.407,0,0,1-.869,2.956,4.642,4.642,0,0,1-2.955,1.114,9.4,9.4,0,0,0,1.564,6.011,3.929,3.929,0,0,0,3.073,1.6,3.649,3.649,0,0,0,3.2-1.967,37.793,37.793,0,0,0,1.662-3.447c.281-.638.572-1.3.878-1.936.529-1.107.992-2.027,1.527-2.918a9.423,9.423,0,0,1,8.478-4.98,13.311,13.311,0,0,1,1.586.1,26.49,26.49,0,0,1,9.275,3.294,1.988,1.988,0,0,1,.789,2.759,1.847,1.847,0,0,1-1.681.994,2.44,2.44,0,0,1-1-.222c-.5-.222-.993-.455-1.473-.68-.72-.337-1.461-.685-2.2-1a17.647,17.647,0,0,0-2.318-.777,11.633,11.633,0,0,0-2.972-.451A5.217,5.217,0,0,0,33.9,84.8a9.3,9.3,0,0,0-2.486,3.346c-.448.908-.855,1.855-1.25,2.771-.227.527-.461,1.071-.7,1.6-.26.575-.574,1.252-.935,1.91C26.812,97.549,24.74,99,22.01,99ZM14.765,40.255a2.875,2.875,0,0,0-2.872,2.872V68.941a2.872,2.872,0,0,0,5.744,0V43.127A2.875,2.875,0,0,0,14.765,40.255Zm.6-11.762c-3.189,0-5.979-.01-8.531-.03a1.776,1.776,0,0,1-1.157-.672,11.156,11.156,0,0,1-.967-1.526c-.087-.156-.173-.309-.261-.461-.32-.554-.407-.856-.3-1.041s.406-.26,1.035-.261q2.045,0,4.091,0,3.343,0,6.686,0h.158l2.369,0h1.329c1.62,0,3.294,0,4.95.019.5.006.752.076.844.234s.03.415-.212.858c-.327.6-.678,1.186-1.05,1.806-.168.28-.34.567-.515.865-.081.018-.166.041-.256.066a2.644,2.644,0,0,1-.673.125C20.347,28.487,17.845,28.493,15.367,28.493Zm2.3-4.67c-3.965,0-8.018-.013-12.047-.039a1.818,1.818,0,0,1-1.2-.476,12.876,12.876,0,0,1-2.977-5.281l15.272-.036,11.556-.027a12.473,12.473,0,0,1-2.958,5.34,1.8,1.8,0,0,1-1.187.507C21.985,23.82,19.813,23.823,17.668,23.823Zm.592-7.3c-5.4,0-10.862-.01-16.141-.02H1.446C.255,16.494.012,16.253,0,15.063a1.906,1.906,0,0,1,.288-1.327,1.493,1.493,0,0,1,1.1-.277H2.862c8.388,0,16.877.009,25.233.027a4,4,0,0,1,.847.131c.165.037.349.078.552.115,0,.235.008.465.019.688a3.942,3.942,0,0,1-.1,1.438c-.111.326-.819.646-1.266.647C25.063,16.515,21.829,16.519,18.26,16.519ZM1.135,12.17h0c-.277-1.942.507-4.191,2.208-6.334A15.57,15.57,0,0,1,13.558.055C13.979.019,14.4,0,14.824,0a14.023,14.023,0,0,1,9.488,3.7,13.318,13.318,0,0,1,4.332,8.408l-12.948.03h-.331Z" transform="translate(265.636 498.687)" fill="#eff1f3"/>
  </g>
</svg>
